<svg id="Calque_1" data-name="Calque 1" xmlns="http://www.w3.org/2000/svg" viewBox="0 0 151.05 60.08"><defs><style>.cls-1{fill:#fff;}</style></defs><path class="cls-1" d="M151.18,111.28c1.35-.12,2-2,2.85-2.94,1.31-1.92,8-6.43,7.16-8.11,0-1.18-2-3.38-3.08-2a1.71,1.71,0,0,0-1.07.91c-2.12.53-2.63,4.27-4.08,5.93-2.36,1.76-3.32,5.42-5.36,7.67-.65.2-1.07.92-1.6,1.34-.76.24-1.65,2-2.11,2.62-.45,1.14,2.42-.16,2.86-1,.76.11,1.11-.83,1.6-1.27A7.19,7.19,0,0,0,151.18,111.28Z" transform="translate(-40.49 -61.28)"/><path class="cls-1" d="M179.91,106.28c1.24-5.68-2.78-12.34-5.42-17.4,1.63-1.87,4-3.3,5.24-5.45,6.25,3.74,14.51-6.08,8.44-10.92-1.85-2.64-3.24-5.27-6.21-6.85-7.32-9-19.41.73-12.11,9.7a70.69,70.69,0,0,0-4.73,6.55,6.33,6.33,0,0,0-4.55-1.14c-2.54-1.92-6.55-3-9.32-1.39C136.42,77.76,172.88,119.44,179.91,106.28Z" transform="translate(-40.49 -61.28)"/><path class="cls-1" d="M178.66,103.72c-12.36-.34-24.12-11.76-25.39-24-.1-1.09-1.8-1.11-1.7,0a27.34,27.34,0,0,0,9,17.48c4.71,4.31,11.46,8.56,18.08,8.21C179.75,105.37,179.75,103.66,178.66,103.72Z" transform="translate(-40.49 -61.28)"/><path class="cls-1" d="M186.25,83.81c2.12-.51,1.47-3.57-.54-2.75a8.12,8.12,0,0,0-2.28-.79,7,7,0,0,0-4.11-1.37c-1.45-1.67-3-3.84-5-4.66-1-1.24-1.7-2.87-2.95-3.82l0-.07a.88.88,0,0,0-.43-1.31c-.86-5.33-3.78,3.37-1.48,4.7,1.33,3.75,9.54,11,13.11,10.36C183.92,84.6,185.33,84.72,186.25,83.81Z" transform="translate(-40.49 -61.28)"/><path class="cls-1" d="M191.05,74.59c-3-5.14-7.75-10.84-13.92-12-4.69-1.37-9.17,3-5.93,7.4,3.38,5.63,12.94,15.49,19.49,9.74a4.77,4.77,0,0,0-.05-5.5c-.46-.68-1.57-.06-1.11.62a3.44,3.44,0,0,1-3.6,5.42c-26.1-10.42-11.21-29,4-5.08a.64.64,0,0,0,1.11-.63Z" transform="translate(-40.49 -61.28)"/><path class="cls-1" d="M171.84,63.33c-6.33,4.3-5,10.56.41,15,4.06,4.44,11.18,10,16.45,4.17,5.67-4.13.51-13.29.32-9,2.92,3.41.07,7.66-3.15,9.48-6.58,2.83-12.55-5.11-16.23-9.65-4.2-5.2,6.5-10.39,2.2-10Z" transform="translate(-40.49 -61.28)"/><path class="cls-1" d="M187.7,71.75c.86,1.32,2.17,2.79,2.53,4.33a.64.64,0,0,0,1.24-.31c-.1-1-3.55-7.17-3.77-4Z" transform="translate(-40.49 -61.28)"/><path class="cls-1" d="M169.6,74.82c-2.86,5.2-12.72,11.34-5.82,17.07,6.07,5.7,11.28-4.82,15.57-8.17.59-3.8-6.07,4.69-7.13,5.29-2.11,2.82-5.66,4.92-8.14,1.28-1-1.25-2.15-2.55-1.28-4.27.3-1.43,11.08-12.62,6.8-11.2Z" transform="translate(-40.49 -61.28)"/><path class="cls-1" d="M165.31,81.39C122,62.7,171,122.07,180.2,105.8c4-4.4-8.14-21.23-7.65-16.09,3.68,4.44,11.15,13.1,4.45,17.87-12.68-1.44-24.26-14.64-28.45-26.16,3.14-6.69,19.58,4,16.76,0Z" transform="translate(-40.49 -61.28)"/><path class="cls-1" d="M157.21,97.06c-20.16,28.18-20.07,29.06,5.17,4.44.45-4.77-16.66,16.14-19.82,16.48l.87.87c.69-2.68,18.72-22.69,13.78-21.79Z" transform="translate(-40.49 -61.28)"/><path class="cls-1" d="M184,72.11a.83.83,0,0,0-.33-.36c-1.83-4-8.38-5-6.58.78C178.45,75.54,185.2,76.81,184,72.11Z" transform="translate(-40.49 -61.28)"/><path class="cls-1" d="M51.84,89.18c-19-.44-12.27-36.87,6.6-25.81l-1.43,3C40.6,57.22,40.78,93.49,57,84.25l1.43,3.11A11.65,11.65,0,0,1,51.84,89.18Z" transform="translate(-40.49 -61.28)"/><path class="cls-1" d="M79.41,89.18c-17.21-.55-13.79-18.47,5.27-17.29,1.54-8.68-8.36-8.06-13.54-5.57l-1.09-2.91c22.33-7.86,18.39,8.67,18.53,23.9A21.89,21.89,0,0,1,79.41,89.18Zm5.27-14.44c-17.32-1.16-15.56,15.27,0,10.5Z" transform="translate(-40.49 -61.28)"/><path class="cls-1" d="M113,65.19a14.91,14.91,0,0,0-7.39.64V88.64h-4.14V63.41a25.14,25.14,0,0,1,12.32-1.67Z" transform="translate(-40.49 -61.28)"/><path class="cls-1" d="M144.77,72.91c0-7.08-4-11.37-10.6-11.37-19.74,1.77-13.42,36.06,9.16,26.11v-4.2c-6,4.3-16.47,3.12-16.74-6.14l18.14-2.61C144.77,74.06,144.77,73.45,144.77,72.91Zm-18.43,1.54c-.85-11.15,14.41-13.93,14.48-2.08Z" transform="translate(-40.49 -61.28)"/><path class="cls-1" d="M72.67,121.36V103.08c.33-6.22-8.44-6.83-11.52-3.2v21.48H57.06V102.44c.34-5.26-8-5.59-11.48-3.89v22.81H41.44V96.13c4.37-2.27,14.67-2.9,17.59,1.19,4.67-5,18.49-4,17.73,5.42v18.62Z" transform="translate(-40.49 -61.28)"/><path class="cls-1" d="M84.19,121.36V94.8h4.09v26.56Z" transform="translate(-40.49 -61.28)"/><path class="cls-1" d="M111.92,121.36c-1.21-9.6,5.44-28.61-12.12-22.81v22.81H95.66V96.13c24.54-7.82,20.16,8.48,20.35,25.23Z" transform="translate(-40.49 -61.28)"/><path class="cls-1" d="M139.24,85.43v8.83c-25.9-6-20.7,37,4.09,24.77V83.45A18.09,18.09,0,0,1,139.24,85.43Zm0,31.27c-17.25,7-17.19-25.63,0-19.24Z" transform="translate(-40.49 -61.28)"/></svg>