<svg xmlns="http://www.w3.org/2000/svg" xmlns:xlink="http://www.w3.org/1999/xlink" viewBox="0 0 500 500"><defs><style>.cls-1,.cls-22,.cls-31{fill:none;}.cls-2,.cls-21{fill:#c8e6ff;}.cls-3{fill:#fca9aa;}.cls-27,.cls-4{fill:#3ea1de;}.cls-5{fill:#f8fdff;}.cls-6{fill:#3771e2;}.cls-7{isolation:isolate;}.cls-8{clip-path:url(#clip-path);}.cls-9{clip-path:url(#clip-path-2);}.cls-10,.cls-12{opacity:0.25;}.cls-11,.cls-12,.cls-13,.cls-14{fill:#fff;}.cls-13{opacity:0.2;}.cls-14{opacity:0.43;}.cls-15{clip-path:url(#clip-path-3);}.cls-16,.cls-18{fill:#d68085;}.cls-16{opacity:0.16;}.cls-16,.cls-18,.cls-24,.cls-27{mix-blend-mode:multiply;}.cls-17{clip-path:url(#clip-path-4);}.cls-18{opacity:0.23;}.cls-19{fill:#ea98a1;}.cls-20{clip-path:url(#clip-path-5);}.cls-21{opacity:0.27;mix-blend-mode:screen;}.cls-22{stroke:#fff;stroke-width:0.49px;}.cls-22,.cls-31{stroke-miterlimit:10;}.cls-23{fill:#fcc3cb;}.cls-24{fill:#2a229e;opacity:0.11;}.cls-25{clip-path:url(#clip-path-6);}.cls-26{clip-path:url(#clip-path-7);}.cls-27{opacity:0.5;}.cls-28{clip-path:url(#clip-path-8);}.cls-29{fill:#6fbcff;opacity:0.47;}.cls-30{fill:#ffc6ba;}.cls-31{stroke:#3771e2;stroke-width:0.81px;}.cls-32{clip-path:url(#clip-path-9);}.cls-33{clip-path:url(#clip-path-10);}</style><clipPath id="clip-path"><rect class="cls-1" width="500" height="500"/></clipPath><clipPath id="clip-path-2"><circle class="cls-2" cx="250.6" cy="262.24" r="200.06" transform="translate(-112.03 254.01) rotate(-45)"/></clipPath><clipPath id="clip-path-3"><path class="cls-3" d="M91.4,547.13s76-110.69,68-125.93-44.66-72.38-23.29-111.35c24.8-45.22,16.54-89,21.4-95.3,3.89-5.07,24.24,6,26.25,32.58,2.92,38.41-19.44,67.1-9.72,72S255.48,276.78,284,307.92s8.5,114-13.92,127.86c-41.53,25.78-43.48,126.91-43.48,126.91S120.55,578.93,91.4,547.13Z"/></clipPath><clipPath id="clip-path-4"><path class="cls-3" d="M284.26,221.13s40.26-57.58,60.29-53c23.19,5.3,3.31,36.44-49,76.85S284.26,221.13,284.26,221.13Z"/></clipPath><clipPath id="clip-path-5"><rect class="cls-2" x="179.65" y="164.5" width="135.66" height="230.93" rx="10.76"/></clipPath><clipPath id="clip-path-6"><path class="cls-1" d="M133.7,289.5c3.87,3.73,202.28,0,202.28,0V58H133.7Z"/></clipPath><clipPath id="clip-path-7"><path class="cls-4" d="M221.22,284.08l2.92,29.66h44.74l5.34-39.87L242.62,269S215.88,266.58,221.22,284.08Z"/></clipPath><clipPath id="clip-path-8"><path class="cls-5" d="M269.36,154.74s-10.45,20.18-9.48,43,1.95,119.13,1.95,119.13l24.31-5.83V176.87A45,45,0,0,0,269.36,154.74Z"/></clipPath><clipPath id="clip-path-9"><path class="cls-6" d="M289.2,301.89a3,3,0,1,1-3-3A3,3,0,0,1,289.2,301.89Z"/></clipPath><clipPath id="clip-path-10"><path class="cls-6" d="M291.72,312a5.39,5.39,0,0,0-10.78,0Z"/></clipPath></defs><g class="cls-7"><g id="OBJECTS"><g class="cls-8"><circle class="cls-2" cx="250.6" cy="262.24" r="200.06" transform="translate(-112.03 254.01) rotate(-45)"/><g class="cls-9"><g class="cls-10"><path class="cls-11" d="M511.07,112l-8.9-11.53c-7.45,5.73-16.83,10.11-26.51,13.48L373,83.93c-5.38-8.29-9.91-17.11-12.26-25.85l-14.07,3.78c7.12,26.54,30.2,52.41,43.95,66-27.25,5.13-64.69,18.41-79.92,52.81-18.13,41,16.35,80.61,38.22,100.39-44.83,3.82-77.18,24.66-89,57.61-10.42,29.11-1.72,62.37,22.17,84.73,3.35,3.14,6.53,6.3,9.63,9.46-35.56,8.83-58.84,20.17-60.19,20.84L238,466.77c.16-.08,6.21-3,16.64-7l76.74,21.51a272.9,272.9,0,0,1,17.22,28.32l13.06-6.47a253.67,253.67,0,0,0-13.9-23.67l.31-1.08L346.8,478a369.91,369.91,0,0,0-27.13-36.14c7.5-1.32,15.32-2.45,23.45-3.27a84.89,84.89,0,0,0,29.19-8.35c18.9-9.35,33.45-25.55,39.82-45.58,9.64-30.31-.27-63-27.17-91.36,29.68-4.27,70.2-17.14,79.35-55.28,3.84-16.06,1.79-31.46-3.25-45.45l.61-2.08-1.56-.46c-8.48-21.7-24-39.72-35.47-51C435.81,138.16,483.37,133.32,511.07,112ZM342.82,163.15l102.7,30.19c4.25,10.07,6.83,20.92,6,32.12L323.72,187.3c.11-.24.17-.48.28-.72A61.15,61.15,0,0,1,342.82,163.15ZM324.67,471.81l-58.21-16.32a358.79,358.79,0,0,1,36.74-10.33C311.5,454.49,318.64,463.54,324.67,471.81Zm17-47.71c-11.76,1.19-22.92,2.95-33.31,5-5.07-5.43-10.5-10.91-16.32-16.35A68.84,68.84,0,0,1,272,378.39l105.88,31.12A69,69,0,0,1,341.66,424.1Zm56.59-43.84a60.36,60.36,0,0,1-14.07,23.52l-113.65-33.4a60.44,60.44,0,0,1,3.1-26.79,62.14,62.14,0,0,1,16.11-24.35l110.57,32.49A62,62,0,0,1,398.25,380.26Zm.29-36.64-102.08-30c14.17-10.37,33.42-16.75,56.4-18.29,1.53.05,6.33.14,13.08-.19C382.82,310.28,393.86,326.91,398.54,343.62Zm-28-63.45c-8.21-6.31-33.6-27.22-44.85-52.43l107.81,32.19C415.65,274.2,388.34,278.75,370.58,280.17Zm69.13-26-117.16-35a47.92,47.92,0,0,1-1.09-25l129,38.5c-.13.64-.14,1.26-.29,1.9A43.8,43.8,0,0,1,439.71,254.16Zm-89.19-96.33c17.83-10.88,39.28-15.43,54.09-17.29,7.44,6.31,25.2,22.76,36.69,44Zm58.57-32.53a239.57,239.57,0,0,1-29.41-31.82l83.24,24.32a240.33,240.33,0,0,1-41.09,6.84C421.05,124.64,416.27,124.66,409.09,125.3Z"/><rect class="cls-11" x="332.52" y="296.83" width="7.28" height="128.89" transform="matrix(0.28, -0.96, 0.96, 0.28, -105.18, 582.05)"/></g><path class="cls-12" d="M262,147.63a3.49,3.49,0,1,1-4.68-1.58A3.49,3.49,0,0,1,262,147.63Z"/><path class="cls-12" d="M179.47,163.66A8.14,8.14,0,1,1,168.56,160,8.14,8.14,0,0,1,179.47,163.66Z"/><path class="cls-12" d="M456,282.6a8.14,8.14,0,1,1-10.91-3.69A8.14,8.14,0,0,1,456,282.6Z"/><path class="cls-12" d="M168.32,102.85A7,7,0,1,1,159,99.69,7,7,0,0,1,168.32,102.85Z"/><path class="cls-12" d="M395.76,381.17a4.65,4.65,0,1,1-6.23-2.11A4.64,4.64,0,0,1,395.76,381.17Z"/><circle class="cls-12" cx="486.2" cy="139.18" r="9.3" transform="translate(-18.91 164.24) rotate(-18.81)"/><path class="cls-12" d="M247.43,83a4.65,4.65,0,1,1-6.23-2.11A4.64,4.64,0,0,1,247.43,83Z"/><path class="cls-11" d="M287,423.16a4.65,4.65,0,1,1-6.23-2.1A4.66,4.66,0,0,1,287,423.16Z"/><path class="cls-12" d="M269.28,327.51a3.49,3.49,0,1,1-4.67-1.58A3.49,3.49,0,0,1,269.28,327.51Z"/><path class="cls-12" d="M450.51,219.13a4.65,4.65,0,1,1-6.24-2.11A4.65,4.65,0,0,1,450.51,219.13Z"/><path class="cls-12" d="M419.89,330.3a7,7,0,1,1-9.35-3.16A7,7,0,0,1,419.89,330.3Z"/><path class="cls-12" d="M499.94,340a4.65,4.65,0,1,1-6.23-2.11A4.65,4.65,0,0,1,499.94,340Z"/><g class="cls-10"><path class="cls-11" d="M73,184.3l-7.53,0a49.23,49.23,0,0,1-2.76,15.13L18.19,232.36a48.31,48.31,0,0,1-14.47-3.05l-2.86,7c13.16,5.39,31,4,41,2.59-6.43,12.83-12.69,32.4-3.3,49.45,11.19,20.31,38.3,18.52,53.3,15.71-12.47,19.65-14,39.5-4.16,54.68,8.71,13.41,25.13,20.25,41.82,17.42,2.34-.4,4.64-.72,6.91-1a168.19,168.19,0,0,0-10.28,31.3l7.4,1.43c0-.09.7-3.5,2.33-9L168.72,374a143.57,143.57,0,0,1,17.06,1.78l1.42-7.4a132.4,132.4,0,0,0-14.09-1.69l-.35-.47-.54.41a191,191,0,0,0-23.38-.15c1.81-3.5,3.8-7.08,6-10.68a43.84,43.84,0,0,0,5.7-14.63,40,40,0,0,0-6.28-30.67c-9.46-13.47-26-19.62-46.13-17.44,7.54-13.56,14.94-34.27,2.1-50a40.5,40.5,0,0,0-19.72-12.9l-.67-.91-.67.5c-11.59-3.3-23.87-2.58-32.12-1.38C60.21,223.48,73.11,202.39,73,184.3ZM41.36,269.59,86,236.77a36,36,0,0,1,15.11,7.59L45.32,285l-.21-.34A31.73,31.73,0,0,1,41.36,269.59ZM162.74,373.76l-25,18.85A184.1,184.1,0,0,1,145,374.25C151.48,373.76,157.44,373.65,162.74,373.76Zm-14.32-21.94c-3.2,5.21-6,10.36-8.37,15.28-3.82.39-7.78.91-11.84,1.6a35.6,35.6,0,0,1-20.44-2.51l46-33.83A35.69,35.69,0,0,1,148.42,351.82Zm-.32-37A31.44,31.44,0,0,1,153.38,328L104,364.27A31.37,31.37,0,0,1,94,354.6a32.11,32.11,0,0,1-5-14.26L137,305A32.09,32.09,0,0,1,148.1,314.79Zm-15-11.6L88.78,335.81c.17-9.08,3.57-19,10.14-28.94.5-.62,2-2.56,4-5.45C114.46,299.22,124.77,299.88,133.11,303.19Zm-34.88-8.37c-5.17,1.41-21.73,5.3-35.63,2l47-34.3C109.89,274.4,103.21,287.07,98.23,294.82Zm11-36.6-51.1,37.27a24.78,24.78,0,0,1-10.62-7.37l56.25-41c.22.25.48.45.69.71A22.6,22.6,0,0,1,109.18,258.22Zm-67.6,6.53c1.11-10.74,6-21,9.83-27.68,4.93-1.08,17.26-3.24,29.59-1.33Zm5-34.3a122.83,122.83,0,0,1-22.31,2.14l36.09-26.65A124.36,124.36,0,0,1,50.26,225C50,225.32,48.53,227.29,46.54,230.45Z"/><rect class="cls-11" x="87.49" y="332.52" width="66.68" height="3.77" transform="translate(-174.74 136.77) rotate(-36.36)"/></g><path class="cls-11" d="M95.55,407.53a6.06,6.06,0,1,1-7.09,4.79A6.06,6.06,0,0,1,95.55,407.53Z"/><path class="cls-12" d="M160.56,254.9a6.06,6.06,0,1,1-7.09,4.8A6.07,6.07,0,0,1,160.56,254.9Z"/><path class="cls-12" d="M27,348.9A5.19,5.19,0,1,1,20.89,353,5.18,5.18,0,0,1,27,348.9Z"/><path class="cls-12" d="M191.78,334.94a3.46,3.46,0,1,1-4.05,2.74A3.47,3.47,0,0,1,191.78,334.94Z"/><circle class="cls-12" cx="89.29" cy="172.4" r="6.92" transform="translate(-89.74 247.54) rotate(-85.39)"/><path class="cls-12" d="M47.57,333.5a3.46,3.46,0,1,1-4,2.74A3.45,3.45,0,0,1,47.57,333.5Z"/><path class="cls-11" d="M167.65,418.23A3.46,3.46,0,1,1,163.6,421,3.47,3.47,0,0,1,167.65,418.23Z"/><path class="cls-12" d="M103.05,385.64a2.59,2.59,0,1,1-3,2.05A2.59,2.59,0,0,1,103.05,385.64Z"/><path class="cls-12" d="M120.53,229.54a3.46,3.46,0,1,1-4,2.74A3.47,3.47,0,0,1,120.53,229.54Z"/><path class="cls-12" d="M172.54,297.75a5.19,5.19,0,1,1-6.08,4.11A5.18,5.18,0,0,1,172.54,297.75Z"/><path class="cls-12" d="M214.34,254.73a3.46,3.46,0,1,1-4.06,2.74A3.46,3.46,0,0,1,214.34,254.73Z"/></g><circle class="cls-13" cx="172.2" cy="78.55" r="39.13"/><circle class="cls-14" cx="172.2" cy="78.55" r="46.86" transform="translate(-5.11 144.77) rotate(-45)"/><path class="cls-11" d="M172.2,118.12a39.57,39.57,0,1,1,39.57-39.57A39.61,39.61,0,0,1,172.2,118.12Zm0-78.27a38.71,38.71,0,1,0,38.7,38.7A38.74,38.74,0,0,0,172.2,39.85Z"/><circle class="cls-13" cx="434.58" cy="217.97" r="39.06" transform="translate(-49.44 172.23) rotate(-21.24)"/><circle class="cls-14" cx="434.58" cy="217.97" r="46.78"/><path class="cls-11" d="M434.58,257.46A39.5,39.5,0,1,1,474.08,218,39.54,39.54,0,0,1,434.58,257.46Zm0-78.12A38.63,38.63,0,1,0,473.21,218,38.67,38.67,0,0,0,434.58,179.34Z"/><circle class="cls-13" cx="349.02" cy="92.96" r="41.9"/><circle class="cls-14" cx="349.02" cy="92.96" r="50.17"/><path class="cls-11" d="M349,135.32A42.36,42.36,0,1,1,391.38,93,42.4,42.4,0,0,1,349,135.32Zm0-83.79A41.44,41.44,0,1,0,390.45,93,41.48,41.48,0,0,0,349,51.53Z"/><path class="cls-6" d="M179.94,92.33a9,9,0,1,0,9.92-15L177.7,69.3l-9.92,15Z"/><path class="cls-6" d="M175.83,68.06,163.66,60a9,9,0,0,0-9.92,15L165.91,83Zm-17.14-6.65a1.68,1.68,0,1,1,.47,2.33A1.68,1.68,0,0,1,158.69,61.41Zm9.67,7.76A1.68,1.68,0,1,1,171.17,71a1.68,1.68,0,0,1-2.81-1.86Zm-7.47-.92a1.68,1.68,0,1,1,.47,2.34A1.68,1.68,0,0,1,160.89,68.25Zm-8.1,0a1.68,1.68,0,1,1,.48,2.33A1.69,1.69,0,0,1,152.79,68.28Zm9.36,6.2A1.68,1.68,0,1,1,165,76.34a1.68,1.68,0,0,1-2.81-1.86Z"/><circle class="cls-13" cx="84.88" cy="363.91" r="35.9"/><circle class="cls-14" cx="84.88" cy="363.91" r="42.99"/><path class="cls-11" d="M84.88,400.21a36.3,36.3,0,1,1,36.3-36.3A36.34,36.34,0,0,1,84.88,400.21Zm0-71.81a35.51,35.51,0,1,0,35.5,35.51A35.55,35.55,0,0,0,84.88,328.4Z"/><polygon class="cls-6" points="64.24 381.6 64.24 381.6 70.09 376.52 70.52 377.08 64.24 381.6"/><path class="cls-6" d="M87.44,369.37l-1.58,1.19-5.51-7.3.92-.68,8.62-6.52,5.51,7.3L87.93,369l.9.86,8.44-6.37-6.78-9L70.84,369.34l-1.66,8.31,8.44.67,11.11-8.38A5,5,0,0,1,87.44,369.37Z"/><path class="cls-6" d="M84.71,365.89l-3.44-3.31-.92.68,5.51,7.3,1.58-1.19A6,6,0,0,1,84.71,365.89Z"/><path class="cls-6" d="M87.44,369.37a5,5,0,0,0,1.29.57l.1-.08-.9-.86Z"/><path class="cls-6" d="M84.58,365.36a3.08,3.08,0,0,0-3.31-2.78l3.44,3.31A4.56,4.56,0,0,1,84.58,365.36Z"/><path class="cls-6" d="M97.13,364.48,89.5,354.37a.7.7,0,0,1,.14-1h0a.7.7,0,0,1,1,.14l7.63,10.1a.69.69,0,0,1-.14,1h0A.69.69,0,0,1,97.13,364.48Z"/><path class="cls-6" d="M105,358.54l-7.63-10.1a.7.7,0,0,1,.14-1h0a.69.69,0,0,1,1,.13l7.63,10.11a.7.7,0,0,1-.14,1h0A.69.69,0,0,1,105,358.54Z"/><rect class="cls-6" x="95.91" y="351.39" width="4.92" height="8.44" transform="translate(322.9 62.83) rotate(52.95)"/><circle class="cls-13" cx="66.3" cy="189.91" r="39.06" transform="translate(-133.96 208.8) rotate(-76.14)"/><circle class="cls-14" cx="66.3" cy="189.91" r="46.78" transform="translate(-131.95 223.93) rotate(-80.49)"/><path class="cls-11" d="M66.3,229.41a39.5,39.5,0,1,1,39.49-39.5A39.54,39.54,0,0,1,66.3,229.41Zm0-78.13a38.63,38.63,0,1,0,38.63,38.63A38.67,38.67,0,0,0,66.3,151.28Z"/><polygon class="cls-6" points="69.17 189.03 66.29 189.03 66.29 186.15 63.41 186.15 63.41 189.03 60.53 189.03 60.53 191.91 63.41 191.91 63.41 194.8 66.29 194.8 66.29 191.91 69.17 191.91 69.17 189.03"/><path class="cls-6" d="M81.83,177.5H49.6a3.35,3.35,0,0,0-3.34,3.34V201a3.35,3.35,0,0,0,3.34,3.34H81.83A3.35,3.35,0,0,0,85.17,201V180.84A3.35,3.35,0,0,0,81.83,177.5ZM65.28,197.39a6.92,6.92,0,1,1,6.92-6.92A6.91,6.91,0,0,1,65.28,197.39Z"/><path class="cls-6" d="M74.58,179.23H72.85v-1.64c0-1.73-.68-2.68-.91-2.68H59.49c-.23,0-.91,1-.91,2.68v1.64H56.85v-1.64c0-2.51,1.13-4.41,2.64-4.41H71.94c1.51,0,2.64,1.9,2.64,4.41Z"/><path class="cls-6" d="M341.94,86.57l6.43,16.61,6.35-25.41,5.65,18.62H370.6a19.85,19.85,0,0,0,1.8-8c0-8.18-6-14.81-13.47-14.81a12.92,12.92,0,0,0-9.79,4.64,12.9,12.9,0,0,0-9.78-4.64c-7.45,0-13.77,6.64-13.48,14.81a20.17,20.17,0,0,0,1.84,7.46h8.93Z"/><path class="cls-6" d="M354.91,85.22l-6.13,24.51-7.19-18.56L337.8,97.8h-9.1c6.2,11.35,20.44,19.72,20.44,19.72s14.31-7.86,20.48-19.15H358.9Z"/><path class="cls-6" d="M461.26,206.68l-.38-1.91a12.48,12.48,0,0,1-4,0l-10.5-9.66a12.73,12.73,0,0,1,.06-3.81l-1.9-.38c-.72,3.59.51,8.05,1.35,10.48-3.56-1-8.82-1.62-12.68,1.59-4.59,3.82-2.81,10.6-1.37,14.25-5.58-2.19-10.68-1.61-14,1.63a10.63,10.63,0,0,0-2.37,11.43c.22.57.41,1.14.6,1.7a43.08,43.08,0,0,0-8.43-1.07v1.94s.92,0,2.4.15l7.9,7.11a36.3,36.3,0,0,1,.38,4.4h1.95a35,35,0,0,0-.26-3.65l.1-.11-.13-.12a49.25,49.25,0,0,0-1.11-5.92c1,.29,2,.61,3,1a11.36,11.36,0,0,0,4,.72,10.27,10.27,0,0,0,7.45-3.09c2.95-3,3.7-7.54,2.16-12.52,3.8,1.24,9.4,2.1,12.75-1.91a10.46,10.46,0,0,0,2.3-5.63l.2-.21-.16-.15a20.56,20.56,0,0,0-1.22-8.19C450.72,205.36,456.69,207.59,461.26,206.68Zm-23.13-3.84,10.49,9.68a9.31,9.31,0,0,1-1.18,4.2l-13-12.12.08-.07A8.17,8.17,0,0,1,438.13,202.84Zm-20.42,35.81-6-5.39a48.09,48.09,0,0,1,5,.94C417.16,235.8,417.48,237.31,417.71,238.65Zm4.85-4.69a42.08,42.08,0,0,0-4.28-1.37c-.28-1-.61-1.93-1-2.92a9.12,9.12,0,0,1-.36-5.3l10.81,10A9.27,9.27,0,0,1,422.56,234Zm9.36-1.9a8,8,0,0,1-3.08,2l-11.6-10.71a8.18,8.18,0,0,1,1.95-3,8.28,8.28,0,0,1,3.37-1.95l11.29,10.42A8.2,8.2,0,0,1,431.92,232.06Zm2.2-4.36-10.43-9.62a14.3,14.3,0,0,1,7.82,1.15c.19.1.75.39,1.58.75A14,14,0,0,1,434.12,227.7Zm.41-9.23c-.61-1.24-2.41-5.24-2.26-8.92l11,10.22C440.27,220.42,436.74,219.35,434.53,218.47Zm9.8,1L432.4,208.34a6.46,6.46,0,0,1,1.34-3.05l13.13,12.23-.14.21A5.79,5.79,0,0,1,444.33,219.45Zm-5-16.79a18.73,18.73,0,0,1,7.48,1.14,21.93,21.93,0,0,1,1.79,7.42Zm8.92-.42a31.4,31.4,0,0,1-1.63-5.54l8.51,7.83a33.08,33.08,0,0,1-5.32-1.61A17,17,0,0,0,448.29,202.24Z"/><rect class="cls-6" x="425.13" y="217.53" width="0.97" height="17.18" transform="translate(-29.2 385.57) rotate(-47.3)"/><circle class="cls-13" cx="391.83" cy="387.71" r="39.06" transform="matrix(0.58, -0.81, 0.81, 0.58, -151.41, 481.22)"/><circle class="cls-14" cx="391.83" cy="387.71" r="46.78"/><path class="cls-11" d="M391.83,427.21a39.5,39.5,0,1,1,39.49-39.5A39.55,39.55,0,0,1,391.83,427.21Zm0-78.13a38.63,38.63,0,1,0,38.63,38.63A38.67,38.67,0,0,0,391.83,349.08Z"/><path class="cls-6" d="M409.93,388a5.91,5.91,0,0,0-5.86-5.91,16.11,16.11,0,0,0,2-7.73c0-6.83-4.2-9.57-6.62-10.58,0-.11,0-.21,0-.32a2.28,2.28,0,1,0-2.27,2.27,2.24,2.24,0,0,0,1.66-.74c2.08.83,5.83,3.17,5.83,9.37a15.74,15.74,0,0,1-2.39,8,5.91,5.91,0,0,0-4.13,4.83,20.75,20.75,0,0,1-8.24,4.21c-9.6-2.48-14.77-10.59-14.77-17,0-7,4.78-9.08,6.53-9.62a2.26,2.26,0,1,0-.4-1.29c-2.07.67-7.49,3.15-7.49,10.91A17.46,17.46,0,0,0,379,386.37a23.36,23.36,0,0,0,10.26,6.19v12.31a7.62,7.62,0,0,0,15.23,0v-11A5.9,5.9,0,0,0,409.93,388Zm-13.06,23.17a6.25,6.25,0,0,1-6.25-6.25V392.56a23.2,23.2,0,0,0,7.56-3.8,5.88,5.88,0,0,0,4.93,5v11.1A6.25,6.25,0,0,1,396.87,411.12Zm7.15-20.9a2.28,2.28,0,1,1,2.27-2.27A2.27,2.27,0,0,1,404,390.22Z"/><path class="cls-3" d="M91.4,547.13s76-110.69,68-125.93-44.66-72.38-23.29-111.35c24.8-45.22,16.54-89,21.4-95.3,3.89-5.07,24.24,6,26.25,32.58,2.92,38.41-19.44,67.1-9.72,72S255.48,276.78,284,307.92s8.5,114-13.92,127.86c-41.53,25.78-43.48,126.91-43.48,126.91S120.55,578.93,91.4,547.13Z"/><g class="cls-15"><path class="cls-16" d="M174.06,218.44s-5.35,32.58-2.92,59.32S151.21,409,176,416.82,280.06,409,283,444.05s61.26-43.27,61.26-43.27l-5.83-31.61S189.13,205.8,174.06,218.44Z"/><path class="cls-16" d="M158.05,430c.45,2.39-75.4,149.72,76.3,111.79s18.48,56.41,18.48,56.41L105.5,567.07,53,529.14S140.1,414,158.05,430"/></g><path class="cls-3" d="M284.26,221.13s40.26-57.58,60.29-53c23.19,5.3,3.31,36.44-49,76.85S284.26,221.13,284.26,221.13Z"/><g class="cls-17"><path class="cls-18" d="M317.5,173.22s2.92,63.21,36.47,19.45-10.7,32.09-10.7,32.09l-33.91,9.13-3-21.29Z"/></g><path class="cls-19" d="M338.41,236.06s-23-6.32-38.25,14.22S321,269.53,338.41,236.06Z"/><path class="cls-19" d="M339.52,282.64s-19.94-9.06-36.74,7.35S318.89,310.46,339.52,282.64Z"/><path class="cls-19" d="M336,322s-19.81-9.54-36.6,6.87S315.34,349.83,336,322Z"/><rect class="cls-6" x="175.03" y="158.87" width="144.9" height="258.19" rx="11.76"/><path class="cls-6" d="M317,239.83h0V201.91h0a3.89,3.89,0,0,1,3.89,3.89v30.14A3.89,3.89,0,0,1,317,239.83Z"/><path class="cls-6" d="M178,224.76h0v37.93h0a3.89,3.89,0,0,1-3.89-3.89V228.65A3.89,3.89,0,0,1,178,224.76Z"/><path class="cls-6" d="M317,264.63h1.07a2.82,2.82,0,0,1,2.82,2.82v14.3a2.82,2.82,0,0,1-2.82,2.82H317a0,0,0,0,1,0,0V264.63A0,0,0,0,1,317,264.63Z"/><rect class="cls-2" x="179.65" y="164.5" width="135.66" height="230.93" rx="10.76"/><g class="cls-20"><polygon class="cls-21" points="147.8 307.42 282 114.87 333.06 117.79 152.18 359.93 147.8 307.42"/><polygon class="cls-21" points="164.43 367.81 344.24 141.61 359.8 155.71 164.35 385.92 164.43 367.81"/><path class="cls-21" d="M197.89,412c2.43-3.4,177.47-191.09,177.47-191.09l19,37.44L319,349.72,208.89,419.51l-14.17-2.45"/></g><path class="cls-22" d="M252.83,406.37a5.35,5.35,0,1,1-5.35-5.35A5.35,5.35,0,0,1,252.83,406.37Z"/><path class="cls-3" d="M324,242.33s-15.9,18.55-14.57,37.76,29.81-8.61,33.79-23.85S338.59,226.43,324,242.33Z"/><path class="cls-3" d="M325.56,286.24s-17.11,14.51-18.69,32.12,28.28-3.49,34.09-16.72S341.08,273.94,325.56,286.24Z"/><path class="cls-3" d="M326,324s-15.73,9.33-19.41,23.27,23.21,1.06,29.69-8.79S340.16,316.18,326,324Z"/><path class="cls-23" d="M325.33,281.93c-4.71,5.46-11.08,7.68-14.23,5s-1.9-9.35,2.81-14.8,9.18-5.49,12.34-2.77S330,276.47,325.33,281.93Z"/><path class="cls-23" d="M322.79,320.56c-4.38,5.07-10.3,7.13-13.23,4.61s-1.76-8.69,2.61-13.77,8.54-5.09,11.47-2.57S327.16,315.48,322.79,320.56Z"/><path class="cls-23" d="M318.71,349.69c-3.47,4-8.16,5.66-10.48,3.65s-1.4-6.88,2.07-10.9,6.76-4,9.09-2S322.18,345.67,318.71,349.69Z"/><path class="cls-24" d="M259.86,341H149a3.66,3.66,0,0,0-3.67,3.66V362.1a3.67,3.67,0,0,0,3.67,3.67h78.25l5.12,6.32,6-6.32h21.43a3.67,3.67,0,0,0,3.67-3.67V344.63A3.66,3.66,0,0,0,259.86,341Z"/><path class="cls-11" d="M259.86,337.57H149a3.66,3.66,0,0,0-3.67,3.66V358.7a3.66,3.66,0,0,0,3.67,3.66h78.25l5.12,6.32,6-6.32h21.43a3.66,3.66,0,0,0,3.67-3.66V341.23A3.66,3.66,0,0,0,259.86,337.57Z"/><g class="cls-25"><path class="cls-4" d="M221.22,284.08l2.92,29.66h44.74l5.34-39.87L242.62,269S215.88,266.58,221.22,284.08Z"/><g class="cls-26"><path class="cls-27" d="M215.88,271.92c-.56,1.87,56.89,8.27,66.12-2.43C297.27,251.82,219.77,258.8,215.88,271.92Z"/></g><path class="cls-23" d="M155.58,239.83s-3.4-14.58.49-26.25c0,0,5.83-3.41,5.83,3.89S155.58,239.83,155.58,239.83Z"/><path class="cls-4" d="M248.45,155.71s-22.85,6.81-23.82,13.62,0,101.14,0,101.14,44.73,3.88,49.59,0S284.92,163,280.55,159.6s-20.43-5.83-20.43-5.83Z"/><path class="cls-5" d="M269.36,154.74s-10.45,20.18-9.48,43,1.95,119.13,1.95,119.13l24.31-5.83V176.87A45,45,0,0,0,269.36,154.74Z"/><g class="cls-28"><path class="cls-29" d="M259.64,237.4l31.6-2.92-7.78-47.16s10.7,27.71-25.77,31.6c-36.77,3.93,3.05,15.41,3.05,15.41"/></g><path class="cls-5" d="M242.78,157.62s-5.75,13.9-6.73,51.82-2.43,107.46-2.43,107.46L210.77,315S219,179.3,224.39,169.09,242.78,157.62,242.78,157.62Z"/><path class="cls-5" d="M242.86,157.42s-18,3.89-24.31,8.75-19.45,38.41-21.88,37.92-22.85-25.77-26.26-27.22c0,0-8.26,12.64-10.69,13.12,0,0,24.79,34.53,33.55,39.87S222.93,206,222.93,206Z"/><path class="cls-30" d="M235.69,107.87c0,.86-4.31,13.8,0,28.46s12.07,12.94,12.07,12.94-.86,6-3.45,8.63l4.32,9.48,19.27-12.15s-7.2-15.45-1.16-29.25-17.25-35.36-30.19-18.11"/><path class="cls-6" d="M264.23,121.67s.78,12.45-5.45,14-12.45-4.67-17.9-2.34-6.22-2.33-6.22-2.33-1.56,10.12-1.56,12.45,4.67,8.56,10.12,8.56,21-8.56,23.34-13.23,0-17.12,0-17.12Z"/><path class="cls-6" d="M253.8,110.46s-16.32,5.06-20.7-.86c-6.53-8.83,6-13.8,12.08-11.22s25.87-3.45,22.42,9.49c0,0,10.35,2.59,5.18,12.94a134.66,134.66,0,0,0-6.9,15.52V125.12S259.84,108.73,253.8,110.46Z"/><path class="cls-30" d="M163.43,176.92s-3.3-3.47-3.9-6.3a.47.47,0,0,0-.86-.14c-.88,1.53-1.85,4.3.8,6.63C163.36,180.51,163.43,176.92,163.43,176.92Z"/><path class="cls-30" d="M167.74,183.43c-.49,0-2.43-6.32-5.84-6.81s-10.21,0-11.18,0-9.24-5.35-13.13-2.43c0,0,10.21,3.4,11.67,5.35s8.27,6.81,15.08,7.78"/><polygon class="cls-29" points="271.81 157.37 275.93 173.46 270.58 173.46 273.01 184.16 260.23 208.72 275.93 185.62 273.01 174.43 277.87 174.43 271.81 157.37"/><polygon class="cls-29" points="241.16 158.27 227.06 170.79 230.46 170.79 226.09 180.51 234.84 200.93 228.03 180.51 232.41 170.3 229.98 169.33 241.16 158.27"/><polygon class="cls-6" points="193.51 195.83 234.35 195.83 249.43 245.91 208.58 245.91 193.51 195.83"/><path class="cls-30" d="M250.64,225.25s-3.45-5.34-9.26-6.08l1.32,4.4s-10-2.21-12.48-4.16-1.46,7.29,1,9.24S237.51,233,239,234s12.16-.49,12.16-.49Z"/><path class="cls-5" d="M269.61,155.47s21.39,5.35,28.2,11.67,11.67,50.57,8.75,55.92-51.3,14.34-55.19,14.34c0,0,0-13.13-3.4-15.07,0,0,35.25-6.08,36.71-9.48S284.19,165.68,269.61,155.47Z"/><path class="cls-31" d="M252,122.09c.11,3.52-1.66,6.44-4,6.51s-4.24-2.73-4.35-6.25,1.66-6.43,3.95-6.51S251.89,118.57,252,122.09Z"/><path class="cls-31" d="M240,122c.11,3.52-1.66,6.43-4,6.5s-4.24-2.72-4.35-6.24,1.66-6.44,4-6.51S239.84,118.51,240,122Z"/><line class="cls-31" x1="251.86" y1="122.16" x2="267.9" y2="125.08"/><path class="cls-31" d="M239.7,121.68a3.74,3.74,0,0,1,4-.22"/><path class="cls-30" d="M270.74,129.47c-1.16,2.35-3.31,3.66-4.8,2.93s-1.77-3.24-.62-5.59,3.31-3.66,4.81-2.93S271.9,127.12,270.74,129.47Z"/></g><path class="cls-11" d="M291.24,387.16h-90a6.81,6.81,0,0,1-6.81-6.81h0a6.8,6.8,0,0,1,6.81-6.8h90a6.8,6.8,0,0,1,6.81,6.8h0A6.81,6.81,0,0,1,291.24,387.16Z"/><path class="cls-6" d="M208.1,380.35a5.35,5.35,0,1,1-5.35-5.34A5.35,5.35,0,0,1,208.1,380.35Z"/><path class="cls-6" d="M168.71,346.92c0-2.19-1.78-4.44-4-4.44a4,4,0,0,0-4,3.74h0a4,4,0,0,0-3.95-3.74c-2.2,0-4,2.25-4,4.44a3.94,3.94,0,0,0,.07.77h0s.86,6,7.86,8.8c7-2.8,7.87-8.8,7.87-8.8h0A4.9,4.9,0,0,0,168.71,346.92Z"/><rect class="cls-6" x="175.03" y="344.37" width="74.39" height="1.46"/><rect class="cls-6" x="175.03" y="347.13" width="74.39" height="1.46"/><rect class="cls-6" x="175.03" y="349.88" width="74.39" height="1.46"/><rect class="cls-6" x="175.03" y="352.64" width="26.74" height="1.46"/><path class="cls-24" d="M186.48,298.18H297.3a3.67,3.67,0,0,1,3.67,3.67v17.46A3.67,3.67,0,0,1,297.3,323H219.05l-5.12,6.32-6-6.32H186.48a3.67,3.67,0,0,1-3.67-3.67V301.85A3.67,3.67,0,0,1,186.48,298.18Z"/><path class="cls-11" d="M186.48,294.78H297.3a3.66,3.66,0,0,1,3.67,3.66v17.47a3.66,3.66,0,0,1-3.67,3.66H219.05l-5.12,6.33-6-6.33H186.48a3.66,3.66,0,0,1-3.67-3.66V298.44A3.66,3.66,0,0,1,186.48,294.78Z"/><rect class="cls-6" x="196.91" y="301.58" width="74.39" height="1.46" transform="translate(468.22 604.63) rotate(180)"/><rect class="cls-6" x="196.91" y="304.34" width="74.39" height="1.46" transform="translate(468.22 610.14) rotate(180)"/><rect class="cls-6" x="196.91" y="307.09" width="74.39" height="1.46" transform="translate(468.22 615.65) rotate(180)"/><rect class="cls-6" x="244.56" y="309.85" width="26.74" height="1.46" transform="translate(515.87 621.16) rotate(180)"/><path class="cls-6" d="M289.2,301.89a3,3,0,1,1-3-3A3,3,0,0,1,289.2,301.89Z"/><g class="cls-32"><rect class="cls-6" x="283.27" y="298.92" width="5.93" height="5.93"/><path class="cls-6" d="M289.2,301.89a3,3,0,1,1-3-3A3,3,0,0,1,289.2,301.89Z"/><path class="cls-6" d="M289.14,301.89a2.91,2.91,0,1,1-2.9-2.91A2.9,2.9,0,0,1,289.14,301.89Z"/><path class="cls-6" d="M289.08,301.89a2.85,2.85,0,1,1-2.84-2.85A2.84,2.84,0,0,1,289.08,301.89Z"/><path class="cls-6" d="M289,301.89a2.79,2.79,0,1,1-2.78-2.79A2.78,2.78,0,0,1,289,301.89Z"/><path class="cls-6" d="M289,301.89a2.73,2.73,0,1,1-2.72-2.73A2.72,2.72,0,0,1,289,301.89Z"/><path class="cls-6" d="M288.9,301.89a2.66,2.66,0,1,1-2.66-2.67A2.66,2.66,0,0,1,288.9,301.89Z"/><path class="cls-6" d="M288.84,301.89a2.6,2.6,0,1,1-2.6-2.61A2.6,2.6,0,0,1,288.84,301.89Z"/><path class="cls-6" d="M288.78,301.89a2.54,2.54,0,1,1-2.54-2.55A2.54,2.54,0,0,1,288.78,301.89Z"/><path class="cls-6" d="M288.72,301.89a2.48,2.48,0,1,1-2.48-2.49A2.48,2.48,0,0,1,288.72,301.89Z"/><path class="cls-6" d="M288.66,301.89a2.42,2.42,0,1,1-2.42-2.43A2.42,2.42,0,0,1,288.66,301.89Z"/><path class="cls-6" d="M288.6,301.89a2.36,2.36,0,1,1-2.36-2.36A2.36,2.36,0,0,1,288.6,301.89Z"/><path class="cls-6" d="M288.54,301.89a2.3,2.3,0,1,1-2.3-2.3A2.3,2.3,0,0,1,288.54,301.89Z"/><path class="cls-6" d="M288.48,301.89a2.24,2.24,0,1,1-2.24-2.24A2.24,2.24,0,0,1,288.48,301.89Z"/><path class="cls-6" d="M288.42,301.89a2.18,2.18,0,1,1-2.18-2.18A2.19,2.19,0,0,1,288.42,301.89Z"/><path class="cls-6" d="M288.36,301.89a2.12,2.12,0,1,1-2.12-2.12A2.12,2.12,0,0,1,288.36,301.89Z"/><path class="cls-6" d="M288.3,301.89a2.06,2.06,0,1,1-2.06-2.06A2.06,2.06,0,0,1,288.3,301.89Z"/><path class="cls-6" d="M288.24,301.89a2,2,0,1,1-2-2A2,2,0,0,1,288.24,301.89Z"/><path class="cls-6" d="M288.18,301.89a1.94,1.94,0,1,1-1.94-1.94A1.93,1.93,0,0,1,288.18,301.89Z"/><path class="cls-6" d="M288.12,301.89a1.88,1.88,0,1,1-1.88-1.88A1.88,1.88,0,0,1,288.12,301.89Z"/><path class="cls-6" d="M288.06,301.89a1.82,1.82,0,1,1-1.82-1.82A1.82,1.82,0,0,1,288.06,301.89Z"/><path class="cls-6" d="M288,301.89a1.76,1.76,0,1,1-1.76-1.76A1.75,1.75,0,0,1,288,301.89Z"/><path class="cls-6" d="M287.94,301.89a1.7,1.7,0,1,1-1.7-1.7A1.7,1.7,0,0,1,287.94,301.89Z"/><path class="cls-6" d="M287.87,301.89a1.64,1.64,0,1,1-1.63-1.64A1.63,1.63,0,0,1,287.87,301.89Z"/><circle class="cls-6" cx="286.24" cy="301.89" r="1.58"/><path class="cls-6" d="M287.75,301.89a1.52,1.52,0,1,1-1.51-1.52A1.51,1.51,0,0,1,287.75,301.89Z"/><path class="cls-6" d="M287.69,301.89a1.46,1.46,0,1,1-1.45-1.46A1.45,1.45,0,0,1,287.69,301.89Z"/><path class="cls-6" d="M287.63,301.89a1.39,1.39,0,1,1-1.39-1.4A1.39,1.39,0,0,1,287.63,301.89Z"/><path class="cls-6" d="M287.57,301.89a1.33,1.33,0,1,1-1.33-1.34A1.33,1.33,0,0,1,287.57,301.89Z"/><path class="cls-6" d="M287.51,301.89a1.27,1.27,0,1,1-1.27-1.28A1.27,1.27,0,0,1,287.51,301.89Z"/><path class="cls-6" d="M287.45,301.89a1.21,1.21,0,1,1-1.21-1.22A1.21,1.21,0,0,1,287.45,301.89Z"/><path class="cls-6" d="M287.39,301.89a1.15,1.15,0,1,1-1.15-1.16A1.15,1.15,0,0,1,287.39,301.89Z"/><path class="cls-6" d="M287.33,301.89a1.09,1.09,0,1,1-1.09-1.09A1.09,1.09,0,0,1,287.33,301.89Z"/><path class="cls-6" d="M287.27,301.89a1,1,0,1,1-1-1A1,1,0,0,1,287.27,301.89Z"/><path class="cls-6" d="M287.21,301.89a1,1,0,1,1-1.94,0,1,1,0,1,1,1.94,0Z"/><path class="cls-6" d="M287.15,301.89a.91.91,0,1,1-.91-.91A.91.91,0,0,1,287.15,301.89Z"/><path class="cls-6" d="M287.09,301.89a.85.85,0,1,1-.85-.85A.85.85,0,0,1,287.09,301.89Z"/><path class="cls-6" d="M287,301.89a.79.79,0,1,1-1.58,0,.79.79,0,1,1,1.58,0Z"/><path class="cls-6" d="M287,301.89a.73.73,0,1,1-.73-.73A.73.73,0,0,1,287,301.89Z"/><path class="cls-6" d="M286.91,301.89a.67.67,0,1,1-.67-.67A.67.67,0,0,1,286.91,301.89Z"/><path class="cls-6" d="M286.85,301.89a.61.61,0,0,1-.61.6.61.61,0,1,1,0-1.21A.61.61,0,0,1,286.85,301.89Z"/><path class="cls-6" d="M286.79,301.89a.55.55,0,1,1-.55-.55A.55.55,0,0,1,286.79,301.89Z"/><path class="cls-6" d="M286.73,301.89a.49.49,0,0,1-1,0,.49.49,0,0,1,1,0Z"/><path class="cls-6" d="M286.67,301.89a.43.43,0,0,1-.43.42.43.43,0,1,1,0-.85A.43.43,0,0,1,286.67,301.89Z"/><path class="cls-6" d="M286.6,301.89a.36.36,0,0,1-.36.36.37.37,0,1,1,0-.73A.36.36,0,0,1,286.6,301.89Z"/><path class="cls-6" d="M286.54,301.89a.29.29,0,0,1-.3.3.3.3,0,0,1-.31-.3.31.31,0,0,1,.31-.31A.3.3,0,0,1,286.54,301.89Z"/><path class="cls-6" d="M286.48,301.89a.25.25,0,0,1-.49,0,.25.25,0,1,1,.49,0Z"/><path class="cls-6" d="M286.42,301.89a.18.18,0,0,1-.18.18.19.19,0,1,1,0-.37A.18.18,0,0,1,286.42,301.89Z"/><path class="cls-6" d="M286.36,301.89a.12.12,0,0,1-.12.12.12.12,0,0,1-.13-.12.13.13,0,0,1,.13-.13A.12.12,0,0,1,286.36,301.89Z"/><path class="cls-6" d="M286.3,301.89a.06.06,0,0,1-.06.06.06.06,0,0,1-.06-.06s0-.07.06-.07A.07.07,0,0,1,286.3,301.89Z"/></g><path class="cls-6" d="M291.72,312a5.39,5.39,0,0,0-10.78,0Z"/><g class="cls-33"><rect class="cls-6" x="280.94" y="306.65" width="10.79" height="5.39"/><path class="cls-6" d="M290.59,309.35a4.26,4.26,0,1,1-4.26-4.27A4.26,4.26,0,0,1,290.59,309.35Z"/><path class="cls-6" d="M290.51,309.35a4.18,4.18,0,1,1-4.18-4.18A4.18,4.18,0,0,1,290.51,309.35Z"/><path class="cls-6" d="M290.42,309.35a4.09,4.09,0,1,1-4.09-4.09A4.09,4.09,0,0,1,290.42,309.35Z"/><path class="cls-6" d="M290.33,309.35a4,4,0,1,1-4-4A4,4,0,0,1,290.33,309.35Z"/><path class="cls-6" d="M290.24,309.35a3.92,3.92,0,1,1-3.91-3.92A3.91,3.91,0,0,1,290.24,309.35Z"/><path class="cls-6" d="M290.16,309.35a3.83,3.83,0,1,1-3.83-3.83A3.84,3.84,0,0,1,290.16,309.35Z"/><path class="cls-6" d="M290.07,309.35a3.74,3.74,0,1,1-3.74-3.75A3.74,3.74,0,0,1,290.07,309.35Z"/><path class="cls-6" d="M290,309.35a3.66,3.66,0,1,1-3.65-3.66A3.64,3.64,0,0,1,290,309.35Z"/><path class="cls-6" d="M289.9,309.35a3.57,3.57,0,1,1-3.57-3.57A3.57,3.57,0,0,1,289.9,309.35Z"/><path class="cls-6" d="M289.81,309.35a3.48,3.48,0,1,1-3.48-3.48A3.48,3.48,0,0,1,289.81,309.35Z"/><path class="cls-6" d="M289.72,309.35a3.4,3.4,0,1,1-3.39-3.4A3.39,3.39,0,0,1,289.72,309.35Z"/><path class="cls-6" d="M289.64,309.35a3.31,3.31,0,1,1-3.31-3.31A3.31,3.31,0,0,1,289.64,309.35Z"/><path class="cls-6" d="M289.55,309.35a3.22,3.22,0,1,1-3.22-3.22A3.22,3.22,0,0,1,289.55,309.35Z"/><path class="cls-6" d="M289.46,309.35a3.13,3.13,0,1,1-3.13-3.14A3.13,3.13,0,0,1,289.46,309.35Z"/><path class="cls-6" d="M289.38,309.35a3.05,3.05,0,1,1-3.05-3.05A3,3,0,0,1,289.38,309.35Z"/><path class="cls-6" d="M289.29,309.35a3,3,0,1,1-3-3A3,3,0,0,1,289.29,309.35Z"/><path class="cls-6" d="M289.2,309.35a2.87,2.87,0,1,1-2.87-2.88A2.87,2.87,0,0,1,289.2,309.35Z"/><path class="cls-6" d="M289.11,309.35a2.79,2.79,0,1,1-2.78-2.79A2.77,2.77,0,0,1,289.11,309.35Z"/><path class="cls-6" d="M289,309.35a2.7,2.7,0,1,1-2.7-2.7A2.7,2.7,0,0,1,289,309.35Z"/><path class="cls-6" d="M288.94,309.35a2.61,2.61,0,1,1-2.61-2.62A2.61,2.61,0,0,1,288.94,309.35Z"/><path class="cls-6" d="M288.85,309.35a2.53,2.53,0,1,1-2.52-2.53A2.52,2.52,0,0,1,288.85,309.35Z"/><path class="cls-6" d="M288.77,309.35a2.44,2.44,0,1,1-2.44-2.44A2.44,2.44,0,0,1,288.77,309.35Z"/><path class="cls-6" d="M288.68,309.35a2.35,2.35,0,1,1-2.35-2.35A2.35,2.35,0,0,1,288.68,309.35Z"/><path class="cls-6" d="M288.59,309.35a2.27,2.27,0,1,1-2.26-2.27A2.26,2.26,0,0,1,288.59,309.35Z"/><path class="cls-6" d="M288.51,309.35a2.18,2.18,0,1,1-2.18-2.18A2.18,2.18,0,0,1,288.51,309.35Z"/><path class="cls-6" d="M288.42,309.35a2.09,2.09,0,1,1-2.09-2.09A2.1,2.1,0,0,1,288.42,309.35Z"/><path class="cls-6" d="M288.33,309.35a2,2,0,1,1-2-2A2,2,0,0,1,288.33,309.35Z"/><path class="cls-6" d="M288.25,309.35a1.92,1.92,0,1,1-1.92-1.92A1.91,1.91,0,0,1,288.25,309.35Z"/><path class="cls-6" d="M288.16,309.35a1.83,1.83,0,1,1-1.83-1.83A1.83,1.83,0,0,1,288.16,309.35Z"/><path class="cls-6" d="M288.07,309.35a1.74,1.74,0,1,1-1.74-1.75A1.74,1.74,0,0,1,288.07,309.35Z"/><path class="cls-6" d="M288,309.35a1.66,1.66,0,1,1-1.65-1.66A1.65,1.65,0,0,1,288,309.35Z"/><path class="cls-6" d="M287.9,309.35a1.57,1.57,0,1,1-1.57-1.57A1.57,1.57,0,0,1,287.9,309.35Z"/><path class="cls-6" d="M287.81,309.35a1.48,1.48,0,1,1-1.48-1.49A1.48,1.48,0,0,1,287.81,309.35Z"/><path class="cls-6" d="M287.72,309.35a1.4,1.4,0,0,1-2.79,0,1.4,1.4,0,1,1,2.79,0Z"/><path class="cls-6" d="M287.64,309.35a1.31,1.31,0,1,1-1.31-1.31A1.31,1.31,0,0,1,287.64,309.35Z"/><path class="cls-6" d="M287.55,309.35a1.22,1.22,0,0,1-2.44,0,1.22,1.22,0,0,1,2.44,0Z"/><path class="cls-6" d="M287.46,309.35a1.14,1.14,0,1,1-1.13-1.14A1.13,1.13,0,0,1,287.46,309.35Z"/><path class="cls-6" d="M287.38,309.35a1.05,1.05,0,1,1-1.05-1.05A1,1,0,0,1,287.38,309.35Z"/><path class="cls-6" d="M287.29,309.35a1,1,0,1,1-1-1A1,1,0,0,1,287.29,309.35Z"/><path class="cls-6" d="M287.2,309.35a.87.87,0,1,1-.87-.88A.87.87,0,0,1,287.2,309.35Z"/><path class="cls-6" d="M287.12,309.35a.79.79,0,1,1-.79-.79A.79.79,0,0,1,287.12,309.35Z"/><path class="cls-6" d="M287,309.35a.7.7,0,1,1-.7-.7A.7.7,0,0,1,287,309.35Z"/><path class="cls-6" d="M286.94,309.35a.61.61,0,0,1-1.22,0,.61.61,0,1,1,1.22,0Z"/><path class="cls-6" d="M286.85,309.35a.52.52,0,0,1-.52.52.52.52,0,0,1-.53-.52.53.53,0,0,1,.53-.53A.52.52,0,0,1,286.85,309.35Z"/><path class="cls-6" d="M286.77,309.35a.44.44,0,1,1-.88,0,.44.44,0,1,1,.88,0Z"/><path class="cls-6" d="M286.68,309.35a.35.35,0,0,1-.35.35.36.36,0,0,1,0-.71A.36.36,0,0,1,286.68,309.35Z"/><path class="cls-6" d="M286.59,309.35a.26.26,0,0,1-.26.26.27.27,0,1,1,0-.53A.26.26,0,0,1,286.59,309.35Z"/><path class="cls-6" d="M286.51,309.35a.18.18,0,1,1-.18-.18A.18.18,0,0,1,286.51,309.35Z"/><path class="cls-6" d="M286.42,309.35a.09.09,0,1,1-.09-.09A.09.09,0,0,1,286.42,309.35Z"/></g></g></g></g></svg>